<svg class="svg-icon" style="width: 1em; height: 1em;vertical-align: middle;fill: currentColor;overflow: hidden;" viewBox="0 0 1024 1024" version="1.1" xmlns="http://www.w3.org/2000/svg"><path d="M512 85.333333a128 128 0 0 1 128 128v256a128 128 0 0 1-128 128 128 128 0 0 1-128-128V213.333333a128 128 0 0 1 128-128m298.666667 384c0 150.613333-111.36 274.773333-256 295.68V896h-85.333334v-130.986667c-144.64-20.906667-256-145.066667-256-295.68h85.333334a213.333333 213.333333 0 0 0 213.333333 213.333334 213.333333 213.333333 0 0 0 213.333333-213.333334h85.333334z" fill="" /></svg>